# xmcd
#
# Track frame offsets: 
#        183
#        11865
#        36710
#        54770
#        74675
#        92203
#        103400
#        118725
#        138085
#        155135
#        172348
#        186508
#        211808
#
# Disc length: 3201 seconds
#
# Revision: 2
# Processed by: cddbd v1.5.2PL0 Copyright (c) Steve Scherf et al.
# Submitted via: ExactAudioCopyFreeDBPlugin 1.0
#
DISCID=ce0c7f0d
DTITLE=Ben Harper - Welcome To The Cruel World
DYEAR=1994
DGENRE=Blues
TTITLE0=The Three Of Us
TTITLE1=Whipping Boy
TTITLE2=Breakin' Down
TTITLE3=Don't Take That Attitude To Your Grave
TTITLE4=Waiting On An Angel
TTITLE5=Mama's Got A Girlfriend Now
TTITLE6=Forever
TTITLE7=Like A King
TTITLE8=Pleasure And Pain
TTITLE9=Walk Away
TTITLE10=How Many Miles Must We March
TTITLE11=Welcome To The Cruel World
TTITLE12=I'll Rise
EXTD=YEAR: 1994
EXTT0=
EXTT1=
EXTT2=
EXTT3=
EXTT4=
EXTT5=
EXTT6=
EXTT7=
EXTT8=
EXTT9=
EXTT10=
EXTT11=
EXTT12=
PLAYORDER=
